<svg width="32" height="32" viewBox="0 0 32 32" fill="none" xmlns="http://www.w3.org/2000/svg">
<circle cx="16" cy="16" r="16" fill="white" fill-opacity="0.08"/>
<path d="M19.7086 8.66974L17.8571 8.66669C15.777 8.66669 14.4328 10.0834 14.4328 12.2762V13.9404H12.5712C12.4103 13.9404 12.28 14.0744 12.28 14.2396V16.6509C12.28 16.8161 12.4104 16.95 12.5712 16.95H14.4328V23.0343C14.4328 23.1996 14.563 23.3334 14.7239 23.3334H17.1528C17.3136 23.3334 17.4439 23.1994 17.4439 23.0343V16.95H19.6206C19.7814 16.95 19.9117 16.8161 19.9117 16.6509L19.9126 14.2396C19.9126 14.1603 19.8818 14.0843 19.8273 14.0281C19.7728 13.972 19.6986 13.9404 19.6213 13.9404H17.4439V12.5296C17.4439 11.8515 17.6012 11.5073 18.4611 11.5073L19.7084 11.5069C19.869 11.5069 19.9993 11.3729 19.9993 11.2078V8.9688C19.9993 8.80386 19.8692 8.67005 19.7086 8.66974Z" fill="white"/>
</svg>
