<svg width="32" height="32" viewBox="0 0 32 32" fill="none" xmlns="http://www.w3.org/2000/svg">
<circle cx="16" cy="16" r="16" fill="white" fill-opacity="0.08"/>
<path fill-rule="evenodd" clip-rule="evenodd" d="M9.33337 16C9.33337 13.2057 9.33337 11.8086 10.0336 10.8448C10.2598 10.5335 10.5335 10.2597 10.8448 10.0336C11.8087 9.33331 13.2058 9.33331 16 9.33331C18.7943 9.33331 20.1914 9.33331 21.1552 10.0336C21.4665 10.2597 21.7403 10.5335 21.9664 10.8448C22.6667 11.8086 22.6667 13.2057 22.6667 16C22.6667 18.7942 22.6667 20.1914 21.9664 21.1552C21.7403 21.4664 21.4665 21.7402 21.1552 21.9664C20.1914 22.6666 18.7943 22.6666 16 22.6666C13.2058 22.6666 11.8087 22.6666 10.8448 21.9664C10.5335 21.7402 10.2598 21.4664 10.0336 21.1552C9.33337 20.1914 9.33337 18.7942 9.33337 16ZM16 12.4706C14.0509 12.4706 12.4706 14.0509 12.4706 16C12.4706 17.9491 14.0509 19.5294 16 19.5294C17.9492 19.5294 19.5294 17.9491 19.5294 16C19.5294 14.0509 17.9492 12.4706 16 12.4706ZM16 18.2058C14.7842 18.2058 13.7942 17.2158 13.7942 16C13.7942 14.7832 14.7842 13.7941 16 13.7941C17.2159 13.7941 18.2059 14.7832 18.2059 16C18.2059 17.2158 17.2159 18.2058 16 18.2058ZM20.2644 12.2059C20.2644 12.4656 20.0539 12.6762 19.7942 12.6762C19.5344 12.6762 19.3238 12.4656 19.3238 12.2059C19.3238 11.9461 19.5344 11.7356 19.7942 11.7356C20.0539 11.7356 20.2644 11.9461 20.2644 12.2059Z" fill="white"/>
</svg>
