<svg width="32" height="32" viewBox="0 0 32 32" fill="none" xmlns="http://www.w3.org/2000/svg">
<circle cx="16" cy="16" r="16" fill="white" fill-opacity="0.08"/>
<path d="M24.875 12.3294C24.2953 12.5753 23.6733 12.7421 23.0198 12.8166C23.6871 12.434 24.1979 11.8271 24.44 11.1062C23.814 11.4605 23.1231 11.7178 22.3869 11.8573C21.7975 11.2551 20.9589 10.88 20.0288 10.88C18.2445 10.88 16.7977 12.2653 16.7977 13.9729C16.7977 14.2151 16.8262 14.4516 16.8813 14.6778C14.1965 14.5487 11.8158 13.317 10.2224 11.4454C9.94382 11.9015 9.78537 12.433 9.78537 13.0003C9.78537 14.0737 10.3562 15.0208 11.2223 15.5749C10.6928 15.558 10.1948 15.4185 9.75881 15.1867V15.2253C9.75881 16.7237 10.8729 17.9742 12.3502 18.2588C12.0795 18.3286 11.7941 18.3672 11.4989 18.3672C11.2902 18.3672 11.0885 18.3474 10.8906 18.3097C11.302 19.5395 12.4949 20.4338 13.9082 20.4583C12.8029 21.2877 11.4093 21.7805 9.89562 21.7805C9.63482 21.7805 9.37793 21.7654 9.125 21.7381C10.555 22.6174 12.2528 23.13 14.0775 23.13C20.021 23.13 23.2698 18.4162 23.2698 14.3282L23.259 13.9277C23.8938 13.4941 24.4429 12.9495 24.875 12.3294Z" fill="white"/>
</svg>
